<?xml version="1.0" encoding="utf-8"?>
<!-- Generator: Adobe Illustrator 18.0.0, SVG Export Plug-In . SVG Version: 6.00 Build 0)  -->
<!DOCTYPE svg PUBLIC "-//W3C//DTD SVG 1.1//EN" "http://www.w3.org/Graphics/SVG/1.1/DTD/svg11.dtd">
<svg version="1.1" id="Layer_1" xmlns="http://www.w3.org/2000/svg" xmlns:xlink="http://www.w3.org/1999/xlink" x="0px" y="0px"
	 viewBox="0 114 960 343" enable-background="new 0 114 960 343" xml:space="preserve">
<path fill="white" d="M298.7,274.9c-19.4,0-38.7,0-58.1,0c0,0,0-1,0,1c0,33.9,1,68.7,1,102.6c0,4.8,1,9.7,1.9,13.6
	c2.9,15.5,12.6,22.3,28.1,21.3c6.8,0,12.6-1,19.4-1.9c1,8.7,1,17.4,1.9,26.1c0,1-1,2.9-1.9,2.9c-17.4,4.8-34.9,6.8-52.3,1.9
	c-18.4-5.8-27.1-19.4-31-36.8c-1.9-8.7-3.9-16.5-3.9-25.2c0-34.9-1-69.7-1-104.6c0-1.9,0-1.9,0-1.9c-9.7,0-19.4,0-29,0
	c0-9.7,0-19.4,0-29c9.7,0,19.4,0,29,0c0-9.7,0-7.7,0-8.7c0-9.7,1-19.4,1-29c0-1,1-2.9,1.9-3.9c11.6-3.9,26.1-6.8,35.8-10.6
	c0,16.5,0,32.9,0,52.3c19.4,0,38.7,0,58.1,0C298.7,255.6,298.7,265.2,298.7,274.9z"/>
<path fill="white" d="M423.6,278.8c-30-4.8-52.3,15.5-57.1,39.7c-1,6.8-1,13.6-1,19.4c0,34.9,1,68.7,1,103.6c0,1,0-1.9,0,7.7
	c-19.4,0-29,0-38.7,0c0-67.8,0-135.5,0-203.3c9.7,0,19.4,0,29,0c0,9.7,0,22.3,0,33.9c9.7-6.8,12.6-14.5,18.4-21.3
	c12.6-12.6,30-18.4,48.4-16.5c1,0,2.9,1,2.9,1.9c0,10.6,0,22.3,0,33.9C425.6,278.8,424.6,278.8,423.6,278.8z"/>
<path fill="white" d="M627.9,449.2c-9.7,0-29,0-38.7,0c0-19.4,0-25.2,0-33.9c0,4.8-10.6,9.7-16.5,14.5c-25.2,19.4-65.8,20.3-90,1.9
	c-14.5-10.6-22.3-26.1-25.2-42.6c-1.9-9.7-2.9-20.3-2.9-30c0-37.8,0-73.6,0-112.3c0-1,0-1.9,0-1.9c12.6,0,28.1,0,37.8,0c0,0,0,0,0,1
	c0,33.9,0,67.8,0,102.6c0,10.6,1.9,21.3,3.9,31.9c2.9,14.5,11.6,25.2,26.1,30c32.9,10.6,66.8-14.5,66.8-49.4c0-38.7-1-76.5-1-115.2
	c0-1.9,0-1,0-1c9.7,0,29,0,38.7,0C627.9,313.6,627.9,381.4,627.9,449.2z"/>
<path fill="white" d="M695.7,449.2c-9.7,0-29,0-38.7,0c0-96.8,0-203.3,0-300.1c9.7,0,29,0,38.7,0
	C695.7,245.9,695.7,352.4,695.7,449.2z"/>
<path fill="white" d="M763.4,449.2c-19.4,0-29,0-38.7,0c0-67.8,0-135.5,0-203.3c9.7,0,19.4,0,38.7,0
	C763.4,313.6,763.4,381.4,763.4,449.2z"/>
<path fill="white" d="M740.2,210.1c-14.5,0-24.2-9.7-24.2-25.2c0-11.6,9.7-24.2,27.1-23.2c11.6,1,23.2,11.6,22.3,24.2
	C764.4,200.4,754.7,210.1,740.2,210.1z"/>
<path fill="white" d="M946.4,321.4c0-10.6,0-20.3-1.9-30c-5.8-29-24.2-46.5-53.2-52.3c-18.4-3.9-37.8-2.9-56.1,1.9
	c-11.6,2.9-23.2,7.7-33.9,14.5c2.9,8.7,5.8,16.5,8.7,25.2c1.9-1,3.9-1.9,4.8-2.9c20.3-10.6,41.6-14.5,63.9-10.6
	c22.3,2.9,36.8,26.1,31.9,46.5c-8.7,0-17.4,0-25.2,1c-19.4,1-38.7,4.8-56.1,12.6c-20.3,8.7-35.8,22.3-40.7,45.5
	c-5.8,27.1,5.8,52.3,29,64.9c11.6,5.8,23.2,7.7,35.8,6.8c18.4,0,33.9-5.8,47.4-17.4c2.9-1.9,7.7-4.8,7.7-8.7c0,9.7,0,21.3,0,31
	c19.4,0,29,0,38.7,0c0-4.7,0-6.1,0-6.6c0,0,0,0,0-0.2l0,0C947.4,401.7,948.3,362,946.4,321.4z M910.6,379.5
	c-3.9,20.3-17.4,31.9-36.8,36.8c-7.7,2.9-15.5,2.9-23.2,1c-15.5-2.9-24.2-15.5-24.2-32.9c0-15.5,7.7-26.1,21.3-32.9
	c9.7-5.8,21.3-7.7,31.9-8.7c9.7-1,19.4-1.9,29-1.9c1,0,1.9,0,1.9,0C910.6,354.3,912.5,366.9,910.6,379.5z"/>
<path fill="white" d="M148.7,195.5c-1-13.6-2.9-27.1-9.7-38.7c-8.7-15.5-21.3-27.1-37.8-31.9c-7.6-2.3-17.4-3.9-26.3-4
	c-11.8-0.2-20.8,2.6-20.8,2.6c-0.6,0.2-1.3,0.5-1.8,0.6c-0.3,0.2-0.6,0.2-1,0.3h-0.2c-14.7,5.5-26,16.5-34,30.7
	c-6.8,11.6-8.7,25.2-9.7,38.7c-1,16.5,1.9,31.9,6.8,46.5c1.9,5.3,4.2,10.6,6.5,15.8c7.1,19.5,14.7,38.6,21.5,58.4
	c3.9,11.6,6.8,24.2,8.7,36.8c1.9,12.6,3.9,24.2,4.8,36.8c1,10.6,1.9,20.3,2.9,31c1,6.8,1,14.5,1,21.3c0,2.1,1.8,3.9,3.9,3.9h30
	c2.1,0,3.9-1.8,3.9-3.9c0-7.4,1-13.9,1-21.3c0-10.6,1-20.3,1.9-31c1-11.6,1.9-23.2,4.8-34.9c3.9-16.5,7.7-32.9,13.6-48.4
	c7.7-21.3,15.5-41.6,23.2-62.9C146.8,227.5,149.7,212,148.7,195.5z M125.5,193.6c0,25.2-21.3,47.4-48.4,46.5
	c-27.1,1-48.4-21.3-48.4-46.5s21.3-49.4,52.3-47.4C105.1,148.1,126.4,167.5,125.5,193.6z"/>
</svg>
