<?xml version="1.0" encoding="utf-8"?>
<!-- Generator: Adobe Illustrator 18.0.0, SVG Export Plug-In . SVG Version: 6.00 Build 0)  -->
<!DOCTYPE svg PUBLIC "-//W3C//DTD SVG 1.1//EN" "http://www.w3.org/Graphics/SVG/1.1/DTD/svg11.dtd">
<svg version="1.1" id="Layer_1" xmlns="http://www.w3.org/2000/svg" xmlns:xlink="http://www.w3.org/1999/xlink" x="0px" y="0px"
	 viewBox="0 90 960 369.7" enable-background="new 0 90 960 369.7" xml:space="preserve">
<g>
	<path fill="white" d="M434.9,232.4c0-5,0-10-0.8-15c-0.8-2.5-1.7-5-3.3-6.7c-5-5-10.9-5.8-17.5-4.2c-5.8,1.7-10,5-11.7,10.9
		c-0.8,2.5-0.8,5-0.8,7.5c0,27.5,0,55.9,0,83.5c0,27.5,0,54.3,0,81.8c0,3.3,0.8,5.8,0.8,9.2c0.8,6.7,7.5,12.5,15,13.4
		c11.7,0.8,20-6.7,18.4-18.4C434.9,340.9,434.9,286.7,434.9,232.4z"/>
	<path fill="white" d="M605.2,299.2c-1.7-10.9-5.8-20-13.4-28.4c-8.3-8.3-18.4-12.5-29.2-15c-15.9-3.3-30.9-0.8-44.2,9.2
		c-1.7,0.8-3.3,1.7-5,2.5c-0.8-2.5-1.7-5-3.3-7.5c-4.2-5.8-10.9-7.5-18.4-5.8c-6.7,1.7-10.9,5-11.7,12.5c0,2.5,0,4.2,0,6.7
		c0,55.9,0,111,0,166.1c0,2.5,0,5.8,0.8,8.3c2.5,9.2,12.5,14.2,22.5,10.9c5.8-1.7,9.2-5,10.9-10.9c0.8-3.3,0.8-5.8,0.8-8.3
		c0-10,0-20.9,0-30.9c0-3.3,0.8-5.8,1.7-9.2c4.2,2.5,7.5,5.8,11.7,7.5c10,4.2,20,5.8,30.1,4.2c23.4-3.3,39.2-16.7,45.9-39.2
		c3.3-10.9,4.2-22.5,5-34.2C610.2,324.2,609.4,310.9,605.2,299.2z M588.5,323.4c0,2.5,0,4.2,0,6.7c0,10.9,0,20.9-3.3,30.9
		c-4.2,12.5-13.4,19.2-27.5,17.5c-13.4-0.8-20-10-22.5-22.5c-2.5-10-2.5-20-1.7-30.1c0.8-7.5,1.7-15,3.3-22.5
		c3.3-18.4,20-21.7,33.4-19.2c8.3,1.7,12.5,7.5,15,15C588.5,307.5,589.4,315.9,588.5,323.4z"/>
	<path fill="white" d="M732.1,291.7c5.8-7.5,3.3-18.4-5.8-21.7c-5.8-3.3-12.5-5.8-19.2-8.3c-15-5.8-30.1-12.5-45.1-18.4
		c-1.7-0.8-4.2-0.8-5.8-0.8c-5.8,0.8-8.3,5-10,10c-3.3,10-4.2,21.7-4.2,33.4c0,3.3,0,7.5,0.8,11.7c0.8,3.3,1.7,7.5,2.5,11.7
		c1.7,5,6.7,9.2,13.4,7.5c23.4-7.5,45.9-14.2,68.5-21.7C728.8,295,731.3,293.4,732.1,291.7z"/>
	<path fill="white" d="M202,255.8c-5.8-0.8-11.7,0-15,5c-3.3,4.2-5,8.3-6.7,13.4c-6.7,22.5-13.4,45.9-20,68.5c-0.8,2.5-1.7,5-2.5,8.3
		c-0.8-0.8-1.7-1.7-1.7-2.5c-14.2-26.7-27.5-52.6-41.7-79.3c-1.7-2.5-3.3-5-5-7.5c-6.7-7.5-19.2-6.7-25.9,1.7
		c-5.8,6.7-5,15-1.7,22.5c6.7,13.4,13.4,26.7,20,40.1c11.7,24.2,23.4,47.6,35.1,71.8c2.5,4.2,3.3,8.3,2.5,12.5
		c-0.8,6.7-5.8,10.9-13.4,10.9c-3.3,0-7.5-0.8-11.7,0c-8.3,0.8-14.2,8.3-13.4,16.7c0,6.7,5,11.7,12.5,14.2
		c10.9,3.3,20.9,1.7,30.9-0.8c7.5-2.5,13.4-6.7,17.5-13.4c3.3-5.8,6.7-11.7,8.3-18.4c15-45.9,30.1-91.8,44.2-137.7
		c1.7-5,3.3-10,0-14.2C212.9,260.8,208.7,257.5,202,255.8z"/>
	<path fill="white" d="M323.1,258.3c-10.9-3.3-21.7-3.3-32.6-1.7c-9.2,0.8-17.5,3.3-25,8.3c-12.5,7.5-19.2,20-23.4,34.2
		c-4.2,14.2-4.2,29.2-4.2,44.2c0,10.9,1.7,21.7,5.8,32.6c6.7,17.5,18.4,30.1,36.7,35.1c14.2,3.3,27.5,2.5,41.7-0.8
		c10.9-3.3,20.9-7.5,29.2-16.7c4.2-5,7.5-10.9,6.7-18.4c-1.7-10.9-13.4-16.7-21.7-10c-1.7,1.7-3.3,2.5-5,4.2
		c-5.8,5-11.7,8.3-18.4,10.9c-13.4,4.2-25.9,0.8-33.4-9.2c-5-5.8-6.7-13.4-5.8-20.9c0.8-2.5,2.5-3.3,5-3.3c11.7,0,21.7,0,38.4,0
		l36.7,0.8c5.8,0,6.7-2.5,7.5-7.5c0.8-1.7,0.8-2.5,0.8-4.2c0.8-13.4,0-26.7-3.3-39.2C353.9,277.5,342.3,264.1,323.1,258.3z
		 M323.1,320.9c0,0-18.4,0-27.5,0c-9.2,0-18.4,0-27.5,0c-3.3,0-4.2-2.5-4.2-5.8c0-2.5,0.8-6.7,1.7-9.2c5-11.7,13.4-19.2,26.7-20.9
		c6.7-0.8,13.4-0.8,19.2,2.5c8.3,4.2,12.5,11.7,14.2,20.9c0.8,2.5,0.8,5.8,0.8,8.3C326.4,318.4,324.7,320.9,323.1,320.9z"/>
	<path fill="white" d="M798.1,272.5c0.8,0,2.5,0,3.3,0c9.2-1.7,18.4-4.2,27.5-6.7c13.4-3.3,26.7-6.7,40.1-10
		c5.8-1.7,9.2-6.7,8.3-12.5c0-1.7,0-3.3-0.8-5c-4.2-10.9-10.9-20.9-17.5-30.1c-4.2-5.8-9.2-11.7-15-15.9c-5.8-4.2-11.7-3.3-15.9,2.5
		c-14.2,18.4-27.5,37.6-41.7,55.9c-3.3,4.2-4.2,9.2-0.8,13.4C788,270,792.2,272.5,798.1,272.5z"/>
	<path fill="white" d="M759.7,327.6c0-5.8-1.7-10-7.5-12.5s-10-0.8-14.2,3.3c-8.3,10.9-17.5,20.9-26.7,31.7
		c-6.7,7.5-13.4,15-19.2,22.5c-3.3,5-3.3,10,0.8,14.2c1.7,1.7,3.3,3.3,5,4.2c9.2,5.8,19.2,10,30.1,13.4c7.5,1.7,14.2,3.3,21.7,3.3
		c7.5,0,11.7-5,11.7-12.5l-1.7-48.4C759.7,338.4,759.7,335.1,759.7,327.6z"/>
	<path fill="white" d="M871.5,321.7c-1.7-0.8-3.3-0.8-5-1.7c-20.9-7.5-40.9-14.2-61.8-20.9c-1.7-0.8-2.5-0.8-3.3-0.8
		c-5.8,0-10,3.3-12.5,7.5c-2.5,5-2.5,10,0,14.2c7.5,12.5,15,24.2,22.5,36.7c5,8.3,10,15.9,15,23.4c4.2,5,9.2,6.7,15,3.3
		c1.7-0.8,3.3-1.7,5-3.3c9.2-8.3,17.5-17.5,24.2-28.4c3.3-5,5.8-10,7.5-15C880.7,330.1,878.2,325.1,871.5,321.7z"/>
	<path fill="white" d="M758.8,168.1c-0.8-20-2.5-40.1-4.2-60.1c0-5-2.5-7.5-6.7-9.2c-2.5-0.8-5-0.8-7.5-1.7l-3.3,2.5
		c-16.7,1.7-31.7,5.8-46.7,11.7c-6.7,1.7-12.5,5-17.5,8.3c-5,3.3-5.8,9.2-2.5,14.2c5.8,9.2,10.9,17.5,16.7,26.7
		c15.9,25,31.7,49.3,47.6,74.3c1.7,3.3,4.2,6.7,7.5,9.2c6.7,5.8,16.7,3.3,19.2-5.8c1.7-4.2,1.7-7.5,1.7-11.7
		c-0.8-7.5-0.8-15-1.7-22.5C760.5,191.5,759.7,179.8,758.8,168.1z"/>
</g>
</svg>
