<?xml version="1.0" encoding="utf-8"?>
<!-- Generator: Adobe Illustrator 18.0.0, SVG Export Plug-In . SVG Version: 6.00 Build 0)  -->
<!DOCTYPE svg PUBLIC "-//W3C//DTD SVG 1.1//EN" "http://www.w3.org/Graphics/SVG/1.1/DTD/svg11.dtd">
<svg version="1.1" id="Layer_1" xmlns="http://www.w3.org/2000/svg" xmlns:xlink="http://www.w3.org/1999/xlink" x="0px" y="0px"
	 viewBox="0 159.1 960 252" enable-background="new 0 159.1 960 252" xml:space="preserve">
<g>
	<path fill="white" d="M714.6,251.6c-7.5,0-12.5,4.2-15,11.7c-1.7,5.8-3.3,14.2-3.3,25c0,13.4,1.7,22.5,4.2,28.4
		c2.5,5.8,9.2,9.2,15,9.2c12.5,0,18.4-11.7,18.4-38.4c0-15-1.7-25-5.8-30.1C724.6,253.3,720.4,251.6,714.6,251.6L714.6,251.6z
		 M191.2,165.6c9.2,4.2,40.9,25.9,52.6,34.2c-36.7,0.8-109.4,16.7-139.4,26.7C129.4,208.2,175.3,173.1,191.2,165.6z M64.3,265.8
		c20-9.2,75.1-25.9,127.7-37.6c0,0-101.8,93.5-130.2,121.9l23.4-62.6c-18.4,2.5-25.9,3.3-50.9,9.2L64.3,265.8L64.3,265.8z
		 M242.9,351c-89.3,5-185.3,37.6-196.2,41.7l11.7-33.4c30.1-14.2,105.2-40.9,197.8-47.6C254.6,319.2,244.6,343.4,242.9,351z
		 M274.6,261.6c0,0-4.2,9.2-8.3,21.7c-35.9,2.5-91.8,13.4-118.5,23.4c13.4-12.5,103.5-101.8,103.5-101.8c35.1,23.4,71,52.6,71,52.6
		L274.6,261.6z M464.1,346.8h-88.5v-23.4l54.3-100.2c4.2-7.5,5-11.7,5-11.7s-5.8,1.7-15,1.7h-47.6l6.7-33.4h88.5v27.5l-56.8,102.7
		c-3.3,5.8-5,6.7-5,6.7s8.3-3.3,14.2-3.3h51.8L464.1,346.8L464.1,346.8z M492.5,346.8V246.6l29.2-5.8v106.9h-29.2V346.8z
		 M507.5,232.4c-10,0-18.4-8.3-18.4-18.4s8.3-18.4,18.4-18.4c10,0,18.4,8.3,18.4,18.4S517.6,232.4,507.5,232.4z M551.8,346.8V189
		l30.1-6.7v164.5H551.8z M611.1,346.8V189l30.1-6.7v164.5H611.1z M752.1,331.8c-8.3,10-20,15.9-37.6,15.9
		c-30.9,0-50.9-23.4-50.9-58.4s20-59.3,50.9-59.3c15.9,0,29.2,5.8,38.4,16.7c9.2,10.9,13.4,23.4,13.4,41.7
		C766.3,307.5,761.3,320.9,752.1,331.8z M895.7,346.8h-27.5l-10-40.1c-2.5-9.2-5-20-6.7-27.5c-0.8-5-0.8-6.7-1.7-11.7
		c-0.8,5-0.8,6.7-2.5,14.2c-2.5,10-7.5,30.1-10,40.9l-5,24.2h-27.5L773,229.9h30.1l9.2,43.4c2.5,13.4,6.7,35.9,6.7,35.9
		s2.5-20.9,8.3-40.1l10.9-38.4h27.5l9.2,38.4c5,20.9,8.3,40.9,8.3,40.9c0.8-5,3.3-23.4,5.8-37.6l8.3-40.9h30.9L895.7,346.8z"/>
</g>
</svg>
